<svg width="30" height="22" viewBox="0 0 30 22" xmlns="http://www.w3.org/2000/svg">
<path d="M21.2943 15.7075L19.0018 13.4137V21C19.0018 21.2652 18.8965 21.5196 18.7089 21.7071C18.5214 21.8946 18.2671 22 18.0018 22C17.7366 22 17.4823 21.8946 17.2947 21.7071C17.1072 21.5196 17.0018 21.2652 17.0018 21V13.4137L14.7093 15.7075C14.6164 15.8004 14.5061 15.8741 14.3847 15.9244C14.2633 15.9747 14.1332 16.0006 14.0018 16.0006C13.8704 16.0006 13.7403 15.9747 13.6189 15.9244C13.4975 15.8741 13.3872 15.8004 13.2943 15.7075C13.2014 15.6146 13.1277 15.5043 13.0774 15.3829C13.0272 15.2615 13.0013 15.1314 13.0013 15C13.0013 14.8686 13.0272 14.7385 13.0774 14.6171C13.1277 14.4957 13.2014 14.3854 13.2943 14.2925L17.2943 10.2925C17.3872 10.1995 17.4975 10.1258 17.6189 10.0754C17.7403 10.0251 17.8704 9.99921 18.0018 9.99921C18.1333 9.99921 18.2634 10.0251 18.3848 10.0754C18.5062 10.1258 18.6165 10.1995 18.7093 10.2925L22.7093 14.2925C22.8022 14.3854 22.8759 14.4957 22.9262 14.6171C22.9765 14.7385 23.0024 14.8686 23.0024 15C23.0024 15.1314 22.9765 15.2615 22.9262 15.3829C22.8759 15.5043 22.8022 15.6146 22.7093 15.7075C22.6164 15.8004 22.5061 15.8741 22.3847 15.9244C22.2633 15.9747 22.1332 16.0006 22.0018 16.0006C21.8704 16.0006 21.7403 15.9747 21.6189 15.9244C21.4975 15.8741 21.3872 15.8004 21.2943 15.7075ZM19.0018 1.66064e-07C16.9588 0.0015414 14.9565 0.571521 13.2189 1.64617C11.4813 2.72082 10.077 4.25775 9.16309 6.085C8.07499 5.92511 6.96561 5.99128 5.90424 6.27939C4.84287 6.5675 3.8523 7.07136 2.9944 7.75949C2.1365 8.44762 1.4297 9.30525 0.918139 10.2788C0.406578 11.2524 0.101246 12.321 0.021212 13.4178C-0.0588216 14.5147 0.0881627 15.6163 0.452985 16.6538C0.817807 17.6913 1.39263 18.6424 2.14156 19.4478C2.89048 20.2532 3.79742 20.8955 4.80573 21.3346C5.81404 21.7737 6.90206 22.0003 8.00184 22H13.0018C13.2671 22 13.5214 21.8946 13.7089 21.7071C13.8965 21.5196 14.0018 21.2652 14.0018 21C14.0018 20.7348 13.8965 20.4804 13.7089 20.2929C13.5214 20.1054 13.2671 20 13.0018 20H8.00184C6.41054 20 4.88442 19.3679 3.7592 18.2426C2.63398 17.1174 2.00184 15.5913 2.00184 14C2.00184 12.4087 2.63398 10.8826 3.7592 9.75736C4.88442 8.63214 6.41054 8 8.00184 8C8.13934 8 8.27684 8 8.41309 8.015C8.13973 8.98643 8.00135 9.99085 8.00184 11C8.00184 11.2652 8.10719 11.5196 8.29473 11.7071C8.48227 11.8946 8.73662 12 9.00184 12C9.26705 12 9.52141 11.8946 9.70894 11.7071C9.89648 11.5196 10.0018 11.2652 10.0018 11C10.0021 9.37745 10.441 7.78514 11.272 6.39159C12.1031 4.99803 13.2954 3.85506 14.7229 3.08363C16.1503 2.31221 17.7597 1.94102 19.3809 2.00935C21.002 2.07768 22.5745 2.58299 23.9319 3.4718C25.2894 4.36061 26.3813 5.59986 27.0921 7.05841C27.803 8.51696 28.1063 10.1405 27.97 11.7574C27.8337 13.3742 27.2629 14.9241 26.3179 16.243C25.3729 17.562 24.0889 18.601 22.6018 19.25C22.3907 19.3415 22.2176 19.5031 22.1117 19.7075C22.0058 19.9118 21.9736 20.1464 22.0206 20.3717C22.0676 20.597 22.1909 20.7992 22.3697 20.9442C22.5484 21.0891 22.7717 21.168 23.0018 21.1675C23.1396 21.1674 23.2759 21.1384 23.4018 21.0825C25.7185 20.0719 27.6165 18.2944 28.7766 16.0489C29.9367 13.8034 30.2881 11.2269 29.7717 8.75268C29.2554 6.2785 27.9027 4.05762 25.9413 2.46358C23.9799 0.869527 21.5293 -0.000438834 19.0018 1.66064e-07Z"/>
</svg>
