<svg width="30" height="24" viewBox="0 0 30 24" fill="none" xmlns="http://www.w3.org/2000/svg">
<path d="M14 5.5V19.5C14 19.6326 13.9473 19.7598 13.8536 19.8536C13.7598 19.9473 13.6326 20 13.5 20H11V22H12.9663C13.2242 21.9968 13.4739 22.0913 13.6651 22.2645C13.8564 22.4376 13.9751 22.6767 13.9975 22.9338C14.0066 23.0705 13.9874 23.2077 13.9413 23.3368C13.8951 23.4659 13.8229 23.5841 13.7291 23.6841C13.6353 23.7841 13.522 23.8637 13.3961 23.9181C13.2703 23.9724 13.1346 24.0003 12.9975 24H7.03375C6.77533 24.0038 6.52506 23.9096 6.33327 23.7364C6.14148 23.5632 6.0224 23.3237 6 23.0662C5.99092 22.9295 6.01006 22.7923 6.05623 22.6632C6.1024 22.5341 6.17462 22.4159 6.2684 22.3159C6.36218 22.2159 6.47552 22.1363 6.60137 22.0819C6.72723 22.0276 6.86291 21.9997 7 22H9V20H3C2.20435 20 1.44129 19.6839 0.87868 19.1213C0.31607 18.5587 0 17.7956 0 17V8C0 7.20435 0.31607 6.44129 0.87868 5.87868C1.44129 5.31607 2.20435 5 3 5H13.5C13.6326 5 13.7598 5.05268 13.8536 5.14645C13.9473 5.24021 14 5.36739 14 5.5ZM30 2V22C30 22.5304 29.7893 23.0391 29.4142 23.4142C29.0391 23.7893 28.5304 24 28 24H18C17.4696 24 16.9609 23.7893 16.5858 23.4142C16.2107 23.0391 16 22.5304 16 22V2C16 1.46957 16.2107 0.960859 16.5858 0.585786C16.9609 0.210714 17.4696 0 18 0H28C28.5304 0 29.0391 0.210714 29.4142 0.585786C29.7893 0.960859 30 1.46957 30 2ZM24.4875 18.6963C24.5285 18.3856 24.4711 18.0698 24.3234 17.7934C24.1758 17.517 23.9453 17.2938 23.6643 17.1551C23.3832 17.0164 23.0658 16.9692 22.7566 17.0201C22.4474 17.071 22.1619 17.2175 21.9402 17.439C21.7185 17.6605 21.5718 17.9458 21.5205 18.255C21.4693 18.5642 21.5162 18.8816 21.6546 19.1628C21.7931 19.4439 22.0161 19.6746 22.2923 19.8226C22.5686 19.9705 22.8843 20.0282 23.195 19.9875C23.5226 19.9446 23.8268 19.7948 24.0605 19.5614C24.2942 19.3279 24.4443 19.0238 24.4875 18.6963ZM27 8.93375C26.9776 8.67628 26.8585 8.43684 26.6667 8.2636C26.4749 8.09037 26.2247 7.99618 25.9662 8H20.0338C19.7758 7.99682 19.5261 8.09129 19.3349 8.26446C19.1436 8.43764 19.0249 8.67671 19.0025 8.93375C18.9934 9.07054 19.0126 9.20773 19.0587 9.33681C19.1049 9.46589 19.1771 9.58409 19.2709 9.68409C19.3647 9.78408 19.478 9.86372 19.6039 9.91807C19.7297 9.97241 19.8654 10.0003 20.0025 10H26.0025C26.1394 9.99996 26.2748 9.97182 26.4003 9.91732C26.5259 9.86282 26.6389 9.78313 26.7325 9.68317C26.826 9.58322 26.898 9.46513 26.944 9.33622C26.99 9.20731 27.0091 9.07033 27 8.93375ZM27 4.93375C26.9776 4.67628 26.8585 4.43684 26.6667 4.2636C26.4749 4.09037 26.2247 3.99618 25.9662 4H20.0338C19.7753 3.99618 19.5251 4.09037 19.3333 4.2636C19.1415 4.43684 19.0224 4.67628 19 4.93375C18.9909 5.07054 19.0101 5.20773 19.0562 5.33681C19.1024 5.46589 19.1746 5.58409 19.2684 5.68409C19.3622 5.78408 19.4755 5.86372 19.6014 5.91807C19.7272 5.97241 19.8629 6.0003 20 6H26C26.1371 6.0003 26.2728 5.97241 26.3986 5.91807C26.5245 5.86372 26.6378 5.78408 26.7316 5.68409C26.8254 5.58409 26.8976 5.46589 26.9438 5.33681C26.9899 5.20773 27.0091 5.07054 27 4.93375Z" fill="black"/>
</svg>
