<svg width="23" height="26" viewBox="0 0 23 26" xmlns="http://www.w3.org/2000/svg">
<path d="M23 1.01622V24.0162C23 24.2814 22.8946 24.5358 22.7071 24.7233C22.5196 24.9109 22.2652 25.0162 22 25.0162C21.7348 25.0162 21.4804 24.9109 21.2929 24.7233C21.1054 24.5358 21 24.2814 21 24.0162V18.0162H15C14.7348 18.0162 14.4804 17.9109 14.2929 17.7233C14.1054 17.5358 14 17.2814 14 17.0162C14.0464 14.6208 14.349 12.2373 14.9025 9.90623C16.125 4.84497 18.4425 1.45247 21.6063 0.0974749C21.7583 0.0323378 21.9242 0.00594239 22.0889 0.0206545C22.2537 0.0353666 22.4123 0.0907262 22.5504 0.181773C22.6885 0.27282 22.8019 0.396709 22.8803 0.542341C22.9588 0.687973 22.9999 0.850797 23 1.01622ZM10.9862 0.852475C10.9667 0.721168 10.9211 0.595075 10.8523 0.481551C10.7835 0.368028 10.6927 0.269345 10.5854 0.191261C10.478 0.113176 10.3561 0.0572519 10.2269 0.0267504C10.0977 -0.00375115 9.96375 -0.0082194 9.83279 0.0136061C9.70184 0.0354316 9.57654 0.0831142 9.46421 0.153872C9.35188 0.22463 9.25476 0.317047 9.17852 0.425733C9.10228 0.534419 9.04845 0.657198 9.02016 0.786908C8.99187 0.916619 8.98969 1.05066 9.01375 1.18122L9.98625 7.01622H7V1.01622C7 0.751008 6.89464 0.496654 6.70711 0.309118C6.51957 0.121582 6.26522 0.0162247 6 0.0162247C5.73478 0.0162247 5.48043 0.121582 5.29289 0.309118C5.10536 0.496654 5 0.751008 5 1.01622V7.01622H2.01375L2.98625 1.18122C3.01031 1.05066 3.00813 0.916619 2.97984 0.786908C2.95155 0.657198 2.89772 0.534419 2.82148 0.425733C2.74524 0.317047 2.64812 0.22463 2.53579 0.153872C2.42346 0.0831142 2.29816 0.0354316 2.16721 0.0136061C2.03625 -0.0082194 1.90227 -0.00375115 1.77306 0.0267504C1.64385 0.0572519 1.52201 0.113176 1.41464 0.191261C1.30727 0.269345 1.21653 0.368028 1.1477 0.481551C1.07887 0.595075 1.03334 0.721168 1.01375 0.852475L0.0137501 6.85248C0.00477563 6.9066 0.000177343 6.96136 0 7.01622C0.00199809 8.43349 0.504898 9.80443 1.41983 10.8868C2.33477 11.9692 3.60285 12.6933 5 12.9312V24.0162C5 24.2814 5.10536 24.5358 5.29289 24.7233C5.48043 24.9109 5.73478 25.0162 6 25.0162C6.26522 25.0162 6.51957 24.9109 6.70711 24.7233C6.89464 24.5358 7 24.2814 7 24.0162V12.9312C8.39715 12.6933 9.66523 11.9692 10.5802 10.8868C11.4951 9.80443 11.998 8.43349 12 7.01622C11.9998 6.96136 11.9952 6.9066 11.9862 6.85248L10.9862 0.852475Z" />
</svg>
