<svg width="26" height="22" viewBox="0 0 26 22" xmlns="http://www.w3.org/2000/svg">
<path d="M24 0H2C1.46957 0 0.960859 0.210714 0.585786 0.585786C0.210714 0.960859 0 1.46957 0 2V21C9.09903e-05 21.1704 0.0437432 21.338 0.126812 21.4869C0.209881 21.6357 0.32961 21.7608 0.474632 21.8503C0.619654 21.9399 0.785156 21.9909 0.955425 21.9985C1.12569 22.0061 1.29508 21.97 1.4475 21.8937L5 20.1175L8.5525 21.8937C8.69143 21.9633 8.84465 21.9995 9 21.9995C9.15535 21.9995 9.30857 21.9633 9.4475 21.8937L13 20.1175L16.5525 21.8937C16.6914 21.9633 16.8446 21.9995 17 21.9995C17.1554 21.9995 17.3086 21.9633 17.4475 21.8937L21 20.1175L24.5525 21.8937C24.7049 21.97 24.8743 22.0061 25.0446 21.9985C25.2148 21.9909 25.3803 21.9399 25.5254 21.8503C25.6704 21.7608 25.7901 21.6357 25.8732 21.4869C25.9563 21.338 25.9999 21.1704 26 21V2C26 1.46957 25.7893 0.960859 25.4142 0.585786C25.0391 0.210714 24.5304 0 24 0ZM19 13H7C6.73478 13 6.48043 12.8946 6.29289 12.7071C6.10536 12.5196 6 12.2652 6 12C6 11.7348 6.10536 11.4804 6.29289 11.2929C6.48043 11.1054 6.73478 11 7 11H19C19.2652 11 19.5196 11.1054 19.7071 11.2929C19.8946 11.4804 20 11.7348 20 12C20 12.2652 19.8946 12.5196 19.7071 12.7071C19.5196 12.8946 19.2652 13 19 13ZM19 9H7C6.73478 9 6.48043 8.89464 6.29289 8.70711C6.10536 8.51957 6 8.26522 6 8C6 7.73478 6.10536 7.48043 6.29289 7.29289C6.48043 7.10536 6.73478 7 7 7H19C19.2652 7 19.5196 7.10536 19.7071 7.29289C19.8946 7.48043 20 7.73478 20 8C20 8.26522 19.8946 8.51957 19.7071 8.70711C19.5196 8.89464 19.2652 9 19 9Z" />
</svg>
