<svg width="26" height="26" viewBox="0 0 26 26" xmlns="http://www.w3.org/2000/svg">
<path d="M26.003 8.99975C26.0045 10.4965 25.6326 11.97 24.9212 13.2869C24.2097 14.6037 23.181 15.7224 21.9282 16.5415C20.6755 17.3606 19.2382 17.8543 17.7466 17.978C16.2549 18.1017 14.756 17.8514 13.3855 17.2498L6.87796 24.7773C6.86296 24.7948 6.84546 24.8135 6.82921 24.8298C6.07898 25.58 5.06144 26.0015 4.00046 26.0015C2.93947 26.0015 1.92194 25.58 1.17171 24.8298C0.421475 24.0795 0 23.062 0 22.001C0 20.94 0.421475 19.9225 1.17171 19.1723C1.18921 19.156 1.20671 19.1385 1.22546 19.1235L8.75296 12.6173C8.07854 11.0745 7.84996 9.37365 8.09314 7.70759C8.33632 6.04153 9.04154 4.47697 10.1288 3.19137C11.216 1.90577 12.6418 0.950591 14.2444 0.434185C15.8469 -0.0822204 17.5622 -0.139186 19.1955 0.269751C19.3638 0.311951 19.5183 0.397249 19.6437 0.517258C19.7691 0.637266 19.8611 0.78785 19.9107 0.954201C19.9603 1.12055 19.9657 1.29694 19.9264 1.46601C19.8871 1.63509 19.8045 1.79103 19.6867 1.9185L15.003 6.99975L15.7105 10.2935L19.003 10.9998L24.0842 6.30975C24.2117 6.19194 24.3676 6.10933 24.5367 6.07005C24.7058 6.03078 24.8822 6.03619 25.0485 6.08575C25.2149 6.13532 25.3654 6.22733 25.4855 6.35274C25.6055 6.47815 25.6908 6.63263 25.733 6.801C25.9124 7.52014 26.0031 8.25856 26.003 8.99975Z"/>
</svg>
